%TF.GenerationSoftware,KiCad,Pcbnew,10.0.0*%
%TF.CreationDate,2026-04-14T18:33:42+02:00*%
%TF.ProjectId,FlexBoard,466c6578-426f-4617-9264-2e6b69636164,rev?*%
%TF.SameCoordinates,Original*%
%TF.FileFunction,Copper,L1,Top*%
%TF.FilePolarity,Positive*%
%FSLAX46Y46*%
G04 Gerber Fmt 4.6, Leading zero omitted, Abs format (unit mm)*
G04 Created by KiCad (PCBNEW 10.0.0) date 2026-04-14 18:33:42*
%MOMM*%
%LPD*%
G01*
G04 APERTURE LIST*
G04 Aperture macros list*
%AMRoundRect*
0 Rectangle with rounded corners*
0 $1 Rounding radius*
0 $2 $3 $4 $5 $6 $7 $8 $9 X,Y pos of 4 corners*
0 Add a 4 corners polygon primitive as box body*
4,1,4,$2,$3,$4,$5,$6,$7,$8,$9,$2,$3,0*
0 Add four circle primitives for the rounded corners*
1,1,$1+$1,$2,$3*
1,1,$1+$1,$4,$5*
1,1,$1+$1,$6,$7*
1,1,$1+$1,$8,$9*
0 Add four rect primitives between the rounded corners*
20,1,$1+$1,$2,$3,$4,$5,0*
20,1,$1+$1,$4,$5,$6,$7,0*
20,1,$1+$1,$6,$7,$8,$9,0*
20,1,$1+$1,$8,$9,$2,$3,0*%
G04 Aperture macros list end*
%TA.AperFunction,Conductor*%
%ADD10C,15.100000*%
%TD*%
%TA.AperFunction,SMDPad,CuDef*%
%ADD11RoundRect,0.075000X-0.925000X-0.175000X0.925000X-0.175000X0.925000X0.175000X-0.925000X0.175000X0*%
%TD*%
%TA.AperFunction,SMDPad,CuDef*%
%ADD12RoundRect,0.075000X0.925000X0.175000X-0.925000X0.175000X-0.925000X-0.175000X0.925000X-0.175000X0*%
%TD*%
%TA.AperFunction,Conductor*%
%ADD13C,1.000000*%
%TD*%
G04 APERTURE END LIST*
%TO.N,Net-(J1-In)*%
D10*
X156550000Y-109000000D02*
G75*
G02*
X141450000Y-109000000I-7550000J0D01*
G01*
X141450000Y-109000000D02*
G75*
G02*
X156550000Y-109000000I7550000J0D01*
G01*
%TD*%
D11*
%TO.P,J2,1,In_1*%
%TO.N,Net-(J1-In)*%
X249000000Y-139000000D03*
%TO.P,J2,2,Ext_2*%
%TO.N,GND*%
X249000000Y-138000000D03*
X249000000Y-140000000D03*
%TD*%
D12*
%TO.P,J1,1,In_1*%
%TO.N,Net-(J1-In)*%
X49000000Y-139000000D03*
%TO.P,J1,2,Ext_2*%
%TO.N,GND*%
X49000000Y-140000000D03*
X49000000Y-138000000D03*
%TD*%
%TO.N,Net-(J1-In)*%
D13*
X149000000Y-139000000D02*
X149000000Y-109000000D01*
X49000000Y-139000000D02*
X149000000Y-139000000D01*
X149000000Y-139000000D02*
X249000000Y-139000000D01*
%TD*%
%TA.AperFunction,Conductor*%
%TO.N,GND*%
G36*
X149947070Y-85982822D02*
G01*
X149952138Y-85983032D01*
X150895055Y-86041425D01*
X150900096Y-86041841D01*
X151839834Y-86139056D01*
X151844854Y-86139680D01*
X152602288Y-86249755D01*
X152779733Y-86275543D01*
X152784776Y-86276382D01*
X153083998Y-86332547D01*
X153713286Y-86450669D01*
X153718258Y-86451709D01*
X154565564Y-86647225D01*
X154638762Y-86664116D01*
X154643721Y-86665368D01*
X155554693Y-86915540D01*
X155559559Y-86916985D01*
X156459471Y-87204503D01*
X156464275Y-87206148D01*
X157351566Y-87530517D01*
X157356296Y-87532357D01*
X158229480Y-87893032D01*
X158234116Y-87895060D01*
X159091689Y-88291422D01*
X159096234Y-88293638D01*
X159804091Y-88656933D01*
X159936714Y-88725000D01*
X159941214Y-88727428D01*
X160763182Y-89193059D01*
X160767569Y-89195665D01*
X161569646Y-89694784D01*
X161573930Y-89697574D01*
X162354734Y-90229321D01*
X162358900Y-90232285D01*
X163117160Y-90795793D01*
X163121199Y-90798927D01*
X163855541Y-91393176D01*
X163859448Y-91396473D01*
X164472639Y-91935994D01*
X164568695Y-92020509D01*
X164572463Y-92023965D01*
X165255363Y-92676689D01*
X165258985Y-92680296D01*
X165914423Y-93360638D01*
X165917894Y-93364393D01*
X166544714Y-94071157D01*
X166548027Y-94075051D01*
X167145191Y-94807067D01*
X167148340Y-94811094D01*
X167714815Y-95567092D01*
X167717796Y-95571246D01*
X168252629Y-96349956D01*
X168255436Y-96354229D01*
X168757719Y-97154331D01*
X168760347Y-97158716D01*
X169110650Y-97771444D01*
X169229221Y-97978839D01*
X169231637Y-97983274D01*
X169666316Y-98822048D01*
X169668574Y-98826634D01*
X170068310Y-99682615D01*
X170070373Y-99687284D01*
X170428145Y-100543836D01*
X170434472Y-100558982D01*
X170436345Y-100563740D01*
X170764206Y-101449725D01*
X170765881Y-101454555D01*
X171056940Y-102353291D01*
X171058414Y-102358186D01*
X171312172Y-103268131D01*
X171313444Y-103273083D01*
X171529485Y-104192754D01*
X171530551Y-104197754D01*
X171708493Y-105125509D01*
X171709353Y-105130549D01*
X171848908Y-106064909D01*
X171849558Y-106069980D01*
X171950471Y-107009222D01*
X171950913Y-107014315D01*
X172013027Y-107956977D01*
X172013258Y-107962084D01*
X172036462Y-108906494D01*
X172036482Y-108911607D01*
X172020736Y-109856168D01*
X172020545Y-109861277D01*
X171965879Y-110804371D01*
X171965478Y-110809468D01*
X171871979Y-111749528D01*
X171871368Y-111754603D01*
X171739203Y-112689978D01*
X171738384Y-112695025D01*
X171567767Y-113624198D01*
X171566740Y-113629206D01*
X171357975Y-114550521D01*
X171356743Y-114555483D01*
X171110169Y-115467437D01*
X171108733Y-115472344D01*
X170824780Y-116373350D01*
X170823143Y-116378193D01*
X170502296Y-117266716D01*
X170500461Y-117271488D01*
X170143256Y-118146038D01*
X170141226Y-118150730D01*
X169748271Y-119009824D01*
X169746049Y-119014428D01*
X169318020Y-119856581D01*
X169315610Y-119861090D01*
X168853230Y-120684887D01*
X168850636Y-120689293D01*
X168354692Y-121493325D01*
X168351919Y-121497620D01*
X167823249Y-122280535D01*
X167820301Y-122284712D01*
X167259808Y-123045168D01*
X167256690Y-123049220D01*
X166665345Y-123785900D01*
X166662064Y-123789820D01*
X166040831Y-124501528D01*
X166037390Y-124505310D01*
X165387344Y-125190807D01*
X165383750Y-125194443D01*
X164706024Y-125852540D01*
X164702284Y-125856025D01*
X163997990Y-126485640D01*
X163994109Y-126488968D01*
X163264474Y-127089004D01*
X163260459Y-127092170D01*
X162506689Y-127661636D01*
X162502547Y-127664633D01*
X162018365Y-128000000D01*
X151500500Y-128000000D01*
X151500500Y-126025171D01*
X151520185Y-125958132D01*
X151572989Y-125912377D01*
X151607365Y-125902361D01*
X151753845Y-125881929D01*
X152530572Y-125736733D01*
X153299765Y-125555821D01*
X154059782Y-125339577D01*
X154809002Y-125088464D01*
X155545824Y-124803018D01*
X156268678Y-124483847D01*
X156976019Y-124131632D01*
X157666340Y-123747126D01*
X158338166Y-123331149D01*
X158990064Y-122884589D01*
X159620643Y-122408398D01*
X160228556Y-121903593D01*
X160812508Y-121371251D01*
X161371251Y-120812508D01*
X161903593Y-120228556D01*
X162408398Y-119620643D01*
X162884589Y-118990064D01*
X163331149Y-118338166D01*
X163747126Y-117666340D01*
X164131632Y-116976019D01*
X164483847Y-116268678D01*
X164803018Y-115545824D01*
X165088464Y-114809002D01*
X165339577Y-114059782D01*
X165555821Y-113299765D01*
X165736733Y-112530572D01*
X165881929Y-111753845D01*
X165991097Y-110971241D01*
X166064006Y-110184430D01*
X166100500Y-109395091D01*
X166100500Y-108604909D01*
X166064006Y-107815570D01*
X165991097Y-107028759D01*
X165881929Y-106246155D01*
X165736733Y-105469428D01*
X165555821Y-104700235D01*
X165339577Y-103940218D01*
X165088464Y-103190998D01*
X164803018Y-102454176D01*
X164483847Y-101731322D01*
X164343628Y-101449725D01*
X164131643Y-101024002D01*
X164131623Y-101023965D01*
X163747126Y-100333660D01*
X163331149Y-99661834D01*
X162884589Y-99009936D01*
X162408398Y-98379357D01*
X161903593Y-97771444D01*
X161903588Y-97771438D01*
X161903582Y-97771431D01*
X161371279Y-97187522D01*
X161371266Y-97187508D01*
X161371251Y-97187492D01*
X160812508Y-96628749D01*
X160812492Y-96628734D01*
X160812477Y-96628720D01*
X160228568Y-96096417D01*
X160228556Y-96096407D01*
X159620643Y-95591602D01*
X159593687Y-95571246D01*
X158990087Y-95115428D01*
X158990080Y-95115423D01*
X158990064Y-95115411D01*
X158338166Y-94668851D01*
X157666340Y-94252874D01*
X157484470Y-94151573D01*
X156976034Y-93868376D01*
X156975997Y-93868356D01*
X156268681Y-93516154D01*
X155545866Y-93197000D01*
X155545847Y-93196992D01*
X155545824Y-93196982D01*
X154809002Y-92911536D01*
X154808993Y-92911533D01*
X154808988Y-92911531D01*
X154059791Y-92660426D01*
X154059790Y-92660425D01*
X154059782Y-92660423D01*
X154059773Y-92660420D01*
X154059762Y-92660417D01*
X153299775Y-92444181D01*
X153299768Y-92444179D01*
X152530591Y-92263271D01*
X152530581Y-92263269D01*
X152530572Y-92263267D01*
X152033552Y-92170357D01*
X151753841Y-92118070D01*
X150971252Y-92008904D01*
X150971231Y-92008902D01*
X150184423Y-91935993D01*
X149529410Y-91905710D01*
X149395091Y-91899500D01*
X148604909Y-91899500D01*
X148477799Y-91905376D01*
X147815576Y-91935993D01*
X147028768Y-92008902D01*
X147028747Y-92008904D01*
X146246158Y-92118070D01*
X145759176Y-92209103D01*
X145469428Y-92263267D01*
X145469422Y-92263268D01*
X145469408Y-92263271D01*
X144700231Y-92444179D01*
X144700224Y-92444181D01*
X143940237Y-92660417D01*
X143940208Y-92660426D01*
X143191011Y-92911531D01*
X143190998Y-92911535D01*
X143190998Y-92911536D01*
X142454176Y-93196982D01*
X142454167Y-93196986D01*
X142454133Y-93197000D01*
X141731318Y-93516154D01*
X141024002Y-93868356D01*
X141023965Y-93868376D01*
X140333670Y-94252868D01*
X140333648Y-94252881D01*
X139661837Y-94668849D01*
X139009935Y-95115412D01*
X139009912Y-95115428D01*
X138379381Y-95591583D01*
X138379339Y-95591616D01*
X137771446Y-96096405D01*
X137771431Y-96096417D01*
X137187522Y-96628720D01*
X137187471Y-96628769D01*
X136628769Y-97187471D01*
X136628720Y-97187522D01*
X136096417Y-97771431D01*
X136096405Y-97771446D01*
X135591616Y-98379339D01*
X135591583Y-98379381D01*
X135115428Y-99009912D01*
X135115412Y-99009935D01*
X134668849Y-99661837D01*
X134252881Y-100333648D01*
X134252868Y-100333670D01*
X133868376Y-101023965D01*
X133868356Y-101024002D01*
X133516154Y-101731318D01*
X133197000Y-102454133D01*
X133196986Y-102454166D01*
X133196982Y-102454176D01*
X132911536Y-103190998D01*
X132911531Y-103191011D01*
X132660426Y-103940208D01*
X132660417Y-103940237D01*
X132444181Y-104700224D01*
X132444179Y-104700231D01*
X132263271Y-105469408D01*
X132118070Y-106246158D01*
X132008904Y-107028747D01*
X132008902Y-107028768D01*
X131935993Y-107815576D01*
X131899500Y-108604912D01*
X131899500Y-109395087D01*
X131935993Y-110184423D01*
X132008902Y-110971231D01*
X132008904Y-110971252D01*
X132118070Y-111753841D01*
X132263271Y-112530591D01*
X132444179Y-113299768D01*
X132444181Y-113299775D01*
X132660417Y-114059762D01*
X132660423Y-114059782D01*
X132911536Y-114809002D01*
X133196982Y-115545824D01*
X133196986Y-115545832D01*
X133197000Y-115545866D01*
X133516154Y-116268681D01*
X133868356Y-116975997D01*
X133868368Y-116976019D01*
X134252874Y-117666340D01*
X134668851Y-118338166D01*
X135115411Y-118990064D01*
X135115423Y-118990080D01*
X135115428Y-118990087D01*
X135438964Y-119418518D01*
X135591602Y-119620643D01*
X135591613Y-119620657D01*
X135591616Y-119620660D01*
X136096405Y-120228553D01*
X136096417Y-120228568D01*
X136628720Y-120812477D01*
X136628734Y-120812492D01*
X136628749Y-120812508D01*
X137187492Y-121371251D01*
X137187508Y-121371266D01*
X137187522Y-121371279D01*
X137771431Y-121903582D01*
X137771438Y-121903588D01*
X137771444Y-121903593D01*
X138379357Y-122408398D01*
X139009936Y-122884589D01*
X139661834Y-123331149D01*
X140333660Y-123747126D01*
X141023981Y-124131632D01*
X141023989Y-124131636D01*
X141024002Y-124131643D01*
X141720760Y-124478588D01*
X141731322Y-124483847D01*
X142454176Y-124803018D01*
X143190998Y-125088464D01*
X143940218Y-125339577D01*
X144700235Y-125555821D01*
X145469428Y-125736733D01*
X146246155Y-125881929D01*
X146392632Y-125902361D01*
X146456308Y-125931117D01*
X146494329Y-125989736D01*
X146499500Y-126025171D01*
X146499500Y-128000000D01*
X135981634Y-128000000D01*
X135497452Y-127664633D01*
X135493310Y-127661636D01*
X134739540Y-127092170D01*
X134735525Y-127089004D01*
X134005890Y-126488968D01*
X134002009Y-126485640D01*
X133297715Y-125856025D01*
X133293975Y-125852540D01*
X132616249Y-125194443D01*
X132612655Y-125190807D01*
X131962609Y-124505310D01*
X131959168Y-124501528D01*
X131337935Y-123789820D01*
X131334654Y-123785900D01*
X130743309Y-123049220D01*
X130740191Y-123045168D01*
X130179698Y-122284712D01*
X130176750Y-122280535D01*
X129648080Y-121497620D01*
X129645307Y-121493325D01*
X129149363Y-120689293D01*
X129146769Y-120684887D01*
X128684389Y-119861090D01*
X128681979Y-119856581D01*
X128253950Y-119014428D01*
X128251728Y-119009824D01*
X128242700Y-118990087D01*
X127944507Y-118338166D01*
X127858773Y-118150730D01*
X127856743Y-118146038D01*
X127648654Y-117636570D01*
X127499526Y-117271456D01*
X127497715Y-117266747D01*
X127176856Y-116378193D01*
X127175219Y-116373350D01*
X126891266Y-115472344D01*
X126889830Y-115467437D01*
X126726084Y-114861821D01*
X126643249Y-114555456D01*
X126642030Y-114550548D01*
X126433256Y-113629193D01*
X126432232Y-113624198D01*
X126372659Y-113299768D01*
X126261613Y-112695013D01*
X126260796Y-112689978D01*
X126128626Y-111754567D01*
X126128024Y-111749564D01*
X126034517Y-110809423D01*
X126034123Y-110804417D01*
X125979453Y-109861252D01*
X125979263Y-109856194D01*
X125963517Y-108911573D01*
X125963536Y-108906527D01*
X125986741Y-107962070D01*
X125986972Y-107956977D01*
X126049086Y-107014315D01*
X126049528Y-107009222D01*
X126150445Y-106069944D01*
X126151086Y-106064944D01*
X126290651Y-105130517D01*
X126291500Y-105125540D01*
X126469450Y-104197742D01*
X126470514Y-104192754D01*
X126686565Y-103273042D01*
X126687816Y-103268173D01*
X126941589Y-102358170D01*
X126943059Y-102353291D01*
X127234130Y-101454520D01*
X127235793Y-101449725D01*
X127393347Y-101023965D01*
X127563667Y-100563704D01*
X127565506Y-100559034D01*
X127929643Y-99687243D01*
X127931667Y-99682663D01*
X128331429Y-98826623D01*
X128333658Y-98822096D01*
X128768381Y-97983237D01*
X128770748Y-97978893D01*
X129239672Y-97158681D01*
X129242259Y-97154365D01*
X129744574Y-96354211D01*
X129747358Y-96349972D01*
X130282216Y-95571227D01*
X130285170Y-95567110D01*
X130851669Y-94811081D01*
X130854808Y-94807067D01*
X130967562Y-94668851D01*
X131451996Y-94075021D01*
X131455260Y-94071186D01*
X132082120Y-93364376D01*
X132085560Y-93360654D01*
X132741015Y-92680294D01*
X132744636Y-92676689D01*
X132761660Y-92660417D01*
X133427564Y-92023938D01*
X133431275Y-92020535D01*
X134140570Y-91396456D01*
X134144439Y-91393191D01*
X134878820Y-90798910D01*
X134882818Y-90795808D01*
X135641115Y-90232273D01*
X135645248Y-90229332D01*
X136426092Y-89697558D01*
X136430330Y-89694798D01*
X137232451Y-89195652D01*
X137236786Y-89193077D01*
X138058800Y-88727419D01*
X138063269Y-88725008D01*
X138903784Y-88293628D01*
X138908291Y-88291431D01*
X139765901Y-87895052D01*
X139770501Y-87893040D01*
X140643720Y-87532350D01*
X140648417Y-87530523D01*
X141535738Y-87206143D01*
X141540513Y-87204508D01*
X142440453Y-86916980D01*
X142445293Y-86915544D01*
X143356289Y-86665365D01*
X143361227Y-86664118D01*
X144281751Y-86451707D01*
X144286703Y-86450671D01*
X145215223Y-86276381D01*
X145220266Y-86275543D01*
X146155151Y-86139679D01*
X146160159Y-86139056D01*
X147099907Y-86041841D01*
X147104940Y-86041425D01*
X148047863Y-85983032D01*
X148052927Y-85982822D01*
X148997478Y-85963347D01*
X149002522Y-85963347D01*
X149947070Y-85982822D01*
G37*
%TD.AperFunction*%
%TD*%
%TA.AperFunction,Conductor*%
%TO.N,GND*%
G36*
X247447605Y-139640185D02*
G01*
X247493360Y-139692989D01*
X247501283Y-139745862D01*
X247504912Y-139750000D01*
X248876000Y-139750000D01*
X248943039Y-139769685D01*
X248988794Y-139822489D01*
X249000000Y-139874000D01*
X249000000Y-140126000D01*
X248980315Y-140193039D01*
X248927511Y-140238794D01*
X248876000Y-140250000D01*
X247504912Y-140250000D01*
X247514800Y-140325103D01*
X247514800Y-140325104D01*
X247516019Y-140328047D01*
X247516307Y-140330729D01*
X247516904Y-140332956D01*
X247516556Y-140333049D01*
X247523488Y-140397516D01*
X247492213Y-140459995D01*
X247432125Y-140495648D01*
X247401458Y-140499500D01*
X240934108Y-140499500D01*
X240806812Y-140533608D01*
X240692686Y-140599500D01*
X240692683Y-140599502D01*
X235829005Y-145463181D01*
X235767682Y-145496666D01*
X235741324Y-145499500D01*
X62258676Y-145499500D01*
X62191637Y-145479815D01*
X62170995Y-145463181D01*
X57307316Y-140599502D01*
X57307314Y-140599500D01*
X57250250Y-140566554D01*
X57193187Y-140533608D01*
X57129539Y-140516554D01*
X57065892Y-140499500D01*
X57065891Y-140499500D01*
X50598542Y-140499500D01*
X50531503Y-140479815D01*
X50485748Y-140427011D01*
X50475804Y-140357853D01*
X50483981Y-140328047D01*
X50485199Y-140325104D01*
X50485199Y-140325103D01*
X50495088Y-140250000D01*
X49124000Y-140250000D01*
X49056961Y-140230315D01*
X49011206Y-140177511D01*
X49000000Y-140126000D01*
X49000000Y-139874000D01*
X49019685Y-139806961D01*
X49072489Y-139761206D01*
X49124000Y-139750000D01*
X50495088Y-139750000D01*
X50498825Y-139745737D01*
X50507260Y-139691651D01*
X50553640Y-139639395D01*
X50619434Y-139620500D01*
X247380566Y-139620500D01*
X247447605Y-139640185D01*
G37*
%TD.AperFunction*%
%TA.AperFunction,Conductor*%
G36*
X148379500Y-138255500D02*
G01*
X148359815Y-138322539D01*
X148307011Y-138368294D01*
X148255500Y-138379500D01*
X50619434Y-138379500D01*
X50552395Y-138359815D01*
X50506640Y-138307011D01*
X50498716Y-138254137D01*
X50495088Y-138250000D01*
X49124000Y-138250000D01*
X49056961Y-138230315D01*
X49011206Y-138177511D01*
X49000000Y-138126000D01*
X49000000Y-137874000D01*
X49019685Y-137806961D01*
X49072489Y-137761206D01*
X49124000Y-137750000D01*
X50495088Y-137750000D01*
X50495088Y-137749999D01*
X50485199Y-137674896D01*
X50485199Y-137674895D01*
X50483981Y-137671953D01*
X50483692Y-137669270D01*
X50483096Y-137667044D01*
X50483443Y-137666950D01*
X50476512Y-137602484D01*
X50507787Y-137540005D01*
X50567875Y-137504352D01*
X50598542Y-137500500D01*
X57065890Y-137500500D01*
X57065892Y-137500500D01*
X57193186Y-137466392D01*
X57307314Y-137400500D01*
X62170995Y-132536819D01*
X62232318Y-132503334D01*
X62258676Y-132500500D01*
X143946226Y-132500500D01*
X143958067Y-132503074D01*
X144011952Y-132500500D01*
X144065892Y-132500500D01*
X144065893Y-132500500D01*
X144071282Y-132499790D01*
X144084372Y-132497747D01*
X144089693Y-132496786D01*
X144089701Y-132496786D01*
X144141087Y-132480351D01*
X144193186Y-132466392D01*
X144203679Y-132460333D01*
X144215222Y-132456642D01*
X144258142Y-132429048D01*
X144263125Y-132426011D01*
X144307314Y-132400500D01*
X144315883Y-132391930D01*
X144326076Y-132385378D01*
X144362354Y-132345459D01*
X144400500Y-132307314D01*
X144406558Y-132296820D01*
X144414709Y-132287852D01*
X144439421Y-132239899D01*
X144466392Y-132193186D01*
X144466393Y-132193178D01*
X144468485Y-132188131D01*
X144473246Y-132175811D01*
X144475079Y-132170712D01*
X144475080Y-132170708D01*
X144486539Y-132117993D01*
X144500500Y-132065892D01*
X144500500Y-132053773D01*
X144503074Y-132041933D01*
X144500500Y-131988048D01*
X144500500Y-131934108D01*
X144497364Y-131922405D01*
X144496786Y-131910299D01*
X144480351Y-131858912D01*
X144466392Y-131806814D01*
X144460333Y-131796320D01*
X144456642Y-131784778D01*
X144429068Y-131741887D01*
X144425991Y-131736839D01*
X144400502Y-131692689D01*
X144397217Y-131688408D01*
X144388862Y-131678042D01*
X144385378Y-131673924D01*
X144347643Y-131639630D01*
X144345459Y-131637645D01*
X144307314Y-131599500D01*
X144296820Y-131593441D01*
X144287852Y-131585291D01*
X144287850Y-131585290D01*
X144287848Y-131585288D01*
X144242517Y-131561926D01*
X144242517Y-131561925D01*
X144239864Y-131560557D01*
X144193186Y-131533608D01*
X144181481Y-131530471D01*
X144170708Y-131524919D01*
X144120883Y-131514088D01*
X144118838Y-131513625D01*
X144116964Y-131513184D01*
X144065892Y-131499500D01*
X144058775Y-131499500D01*
X144044772Y-131496207D01*
X144044653Y-131496139D01*
X144044325Y-131496101D01*
X143185036Y-131290660D01*
X143180090Y-131289369D01*
X142606674Y-131127017D01*
X142271127Y-131032013D01*
X142266257Y-131030525D01*
X142000893Y-130943427D01*
X141368668Y-130735917D01*
X141363845Y-130734223D01*
X140479169Y-130402869D01*
X140474419Y-130400977D01*
X140376159Y-130359478D01*
X139604174Y-130033444D01*
X139599526Y-130031368D01*
X138745120Y-129628252D01*
X138740542Y-129625975D01*
X137903528Y-129188007D01*
X137899048Y-129185544D01*
X137080789Y-128713440D01*
X137076415Y-128710795D01*
X136278301Y-128205357D01*
X136274039Y-128202533D01*
X135981634Y-128000000D01*
X148379500Y-128000000D01*
X148379500Y-138255500D01*
G37*
%TD.AperFunction*%
%TA.AperFunction,Conductor*%
G36*
X161725960Y-128202533D02*
G01*
X161721698Y-128205357D01*
X160923584Y-128710795D01*
X160919210Y-128713440D01*
X160100951Y-129185544D01*
X160096471Y-129188007D01*
X159259457Y-129625975D01*
X159254879Y-129628252D01*
X158400483Y-130031364D01*
X158395815Y-130033449D01*
X157525580Y-130400977D01*
X157520830Y-130402869D01*
X156636154Y-130734223D01*
X156631331Y-130735917D01*
X155733752Y-131030522D01*
X155728862Y-131032016D01*
X154819909Y-131289369D01*
X154814963Y-131290660D01*
X153955675Y-131496101D01*
X153955227Y-131496207D01*
X153941224Y-131499500D01*
X153934108Y-131499500D01*
X153883052Y-131513179D01*
X153881167Y-131513623D01*
X153881054Y-131513616D01*
X153879124Y-131514085D01*
X153829299Y-131524917D01*
X153829284Y-131524922D01*
X153818515Y-131530471D01*
X153806814Y-131533608D01*
X153760112Y-131560571D01*
X153757481Y-131561927D01*
X153757479Y-131561927D01*
X153712149Y-131585289D01*
X153712144Y-131585293D01*
X153703176Y-131593442D01*
X153692686Y-131599500D01*
X153654564Y-131637620D01*
X153652372Y-131639613D01*
X153652358Y-131639627D01*
X153614621Y-131673924D01*
X153611160Y-131678014D01*
X153602755Y-131688443D01*
X153599498Y-131692688D01*
X153574002Y-131736845D01*
X153574003Y-131736846D01*
X153572518Y-131739417D01*
X153543358Y-131784778D01*
X153539666Y-131796319D01*
X153533610Y-131806809D01*
X153533608Y-131806813D01*
X153520411Y-131856062D01*
X153518746Y-131861733D01*
X153503214Y-131910299D01*
X153502635Y-131922405D01*
X153499500Y-131934108D01*
X153499500Y-131988047D01*
X153499359Y-131990999D01*
X153496925Y-132041932D01*
X153496925Y-132041933D01*
X153499500Y-132053778D01*
X153499500Y-132065892D01*
X153513451Y-132117962D01*
X153514081Y-132120857D01*
X153514088Y-132120883D01*
X153524919Y-132170708D01*
X153527549Y-132175811D01*
X153530471Y-132181481D01*
X153533608Y-132193186D01*
X153560562Y-132239872D01*
X153561925Y-132242516D01*
X153561926Y-132242517D01*
X153585288Y-132287848D01*
X153585290Y-132287850D01*
X153585291Y-132287852D01*
X153593441Y-132296820D01*
X153599500Y-132307314D01*
X153637645Y-132345459D01*
X153673924Y-132385378D01*
X153684116Y-132391930D01*
X153692686Y-132400500D01*
X153739404Y-132427472D01*
X153784778Y-132456642D01*
X153796320Y-132460333D01*
X153806814Y-132466392D01*
X153858912Y-132480351D01*
X153881650Y-132487623D01*
X153910295Y-132496785D01*
X153910296Y-132496785D01*
X153910299Y-132496786D01*
X153922405Y-132497364D01*
X153934108Y-132500500D01*
X153988048Y-132500500D01*
X153991000Y-132500641D01*
X154041931Y-132503074D01*
X154041931Y-132503073D01*
X154041933Y-132503074D01*
X154041934Y-132503073D01*
X154047293Y-132502626D01*
X154067095Y-132500500D01*
X235741324Y-132500500D01*
X235808363Y-132520185D01*
X235829005Y-132536819D01*
X240599500Y-137307314D01*
X240692686Y-137400500D01*
X240806814Y-137466392D01*
X240934108Y-137500500D01*
X247401458Y-137500500D01*
X247468497Y-137520185D01*
X247514252Y-137572989D01*
X247524196Y-137642147D01*
X247516019Y-137671953D01*
X247514800Y-137674895D01*
X247514800Y-137674896D01*
X247504911Y-137749999D01*
X247504912Y-137750000D01*
X248876000Y-137750000D01*
X248943039Y-137769685D01*
X248988794Y-137822489D01*
X249000000Y-137874000D01*
X249000000Y-138126000D01*
X248980315Y-138193039D01*
X248927511Y-138238794D01*
X248876000Y-138250000D01*
X247504912Y-138250000D01*
X247501174Y-138254262D01*
X247492740Y-138308349D01*
X247446360Y-138360605D01*
X247380566Y-138379500D01*
X149744500Y-138379500D01*
X149677461Y-138359815D01*
X149631706Y-138307011D01*
X149620500Y-138255500D01*
X149620500Y-128000000D01*
X162018366Y-128000000D01*
X161725960Y-128202533D01*
G37*
%TD.AperFunction*%
%TD*%
M02*
